<svg width="47" height="46" viewBox="0 0 47 46" fill="none" xmlns="http://www.w3.org/2000/svg">
<circle cx="23.2656" cy="23" r="23" fill="#FFD600"/>
<path d="M23.7969 24.2422C23.7969 26.6016 23.3086 28.4062 22.332 29.6562C21.3555 30.9062 19.9258 31.5312 18.043 31.5312C16.1836 31.5312 14.7617 30.918 13.7773 29.6914C12.793 28.4648 12.2891 26.707 12.2656 24.418V21.2773C12.2656 18.8945 12.7578 17.0859 13.7422 15.8516C14.7344 14.6172 16.1602 14 18.0195 14C19.8789 14 21.3008 14.6133 22.2852 15.8398C23.2695 17.0586 23.7734 18.8125 23.7969 21.1016V24.2422ZM20.4102 20.7969C20.4102 19.3828 20.2148 18.3555 19.8242 17.7148C19.4414 17.0664 18.8398 16.7422 18.0195 16.7422C17.2227 16.7422 16.6328 17.0508 16.25 17.668C15.875 18.2773 15.6758 19.2344 15.6523 20.5391V24.6875C15.6523 26.0781 15.8398 27.1133 16.2148 27.793C16.5977 28.4648 17.207 28.8008 18.043 28.8008C18.8711 28.8008 19.4688 28.4766 19.8359 27.8281C20.2031 27.1797 20.3945 26.1875 20.4102 24.8516V20.7969Z" fill="white"/>
<path d="M34.3203 31.2969H30.9336V18.2422L26.8906 19.4961V16.7422L33.957 14.2109H34.3203V31.2969Z" fill="white"/>
</svg>
