<svg width="47" height="46" viewBox="0 0 47 46" fill="none" xmlns="http://www.w3.org/2000/svg">
<circle cx="23.25" cy="23" r="23" fill="#FFD600"/>
<path d="M21.7812 24.2422C21.7812 26.6016 21.293 28.4062 20.3164 29.6562C19.3398 30.9062 17.9102 31.5312 16.0273 31.5312C14.168 31.5312 12.7461 30.918 11.7617 29.6914C10.7773 28.4648 10.2734 26.707 10.25 24.418V21.2773C10.25 18.8945 10.7422 17.0859 11.7266 15.8516C12.7188 14.6172 14.1445 14 16.0039 14C17.8633 14 19.2852 14.6133 20.2695 15.8398C21.2539 17.0586 21.7578 18.8125 21.7812 21.1016V24.2422ZM18.3945 20.7969C18.3945 19.3828 18.1992 18.3555 17.8086 17.7148C17.4258 17.0664 16.8242 16.7422 16.0039 16.7422C15.207 16.7422 14.6172 17.0508 14.2344 17.668C13.8594 18.2773 13.6602 19.2344 13.6367 20.5391V24.6875C13.6367 26.0781 13.8242 27.1133 14.1992 27.793C14.582 28.4648 15.1914 28.8008 16.0273 28.8008C16.8555 28.8008 17.4531 28.4766 17.8203 27.8281C18.1875 27.1797 18.3789 26.1875 18.3945 24.8516V20.7969Z" fill="white"/>
<path d="M35.7734 31.2969H24.0781V28.9766L29.5977 23.0938C30.3555 22.2656 30.9141 21.543 31.2734 20.9258C31.6406 20.3086 31.8242 19.7227 31.8242 19.168C31.8242 18.4102 31.6328 17.8164 31.25 17.3867C30.8672 16.9492 30.3203 16.7305 29.6094 16.7305C28.8438 16.7305 28.2383 16.9961 27.793 17.5273C27.3555 18.0508 27.1367 18.7422 27.1367 19.6016H23.7383C23.7383 18.5625 23.9844 17.6133 24.4766 16.7539C24.9766 15.8945 25.6797 15.2227 26.5859 14.7383C27.4922 14.2461 28.5195 14 29.668 14C31.4258 14 32.7891 14.4219 33.7578 15.2656C34.7344 16.1094 35.2227 17.3008 35.2227 18.8398C35.2227 19.6836 35.0039 20.543 34.5664 21.418C34.1289 22.293 33.3789 23.3125 32.3164 24.4766L28.4375 28.5664H35.7734V31.2969Z" fill="white"/>
</svg>
