<svg width="47" height="46" viewBox="0 0 47 46" fill="none" xmlns="http://www.w3.org/2000/svg">
<circle cx="23.3672" cy="23" r="23" fill="#FFD600"/>
<path d="M21.8984 24.2422C21.8984 26.6016 21.4102 28.4062 20.4336 29.6562C19.457 30.9062 18.0273 31.5312 16.1445 31.5312C14.2852 31.5312 12.8633 30.918 11.8789 29.6914C10.8945 28.4648 10.3906 26.707 10.3672 24.418V21.2773C10.3672 18.8945 10.8594 17.0859 11.8438 15.8516C12.8359 14.6172 14.2617 14 16.1211 14C17.9805 14 19.4023 14.6133 20.3867 15.8398C21.3711 17.0586 21.875 18.8125 21.8984 21.1016V24.2422ZM18.5117 20.7969C18.5117 19.3828 18.3164 18.3555 17.9258 17.7148C17.543 17.0664 16.9414 16.7422 16.1211 16.7422C15.3242 16.7422 14.7344 17.0508 14.3516 17.668C13.9766 18.2773 13.7773 19.2344 13.7539 20.5391V24.6875C13.7539 26.0781 13.9414 27.1133 14.3164 27.793C14.6992 28.4648 15.3086 28.8008 16.1445 28.8008C16.9727 28.8008 17.5703 28.4766 17.9375 27.8281C18.3047 27.1797 18.4961 26.1875 18.5117 24.8516V20.7969Z" fill="white"/>
<path d="M27.6406 21.2656H29.4453C30.3047 21.2656 30.9414 21.0508 31.3555 20.6211C31.7695 20.1914 31.9766 19.6211 31.9766 18.9102C31.9766 18.2227 31.7695 17.6875 31.3555 17.3047C30.9492 16.9219 30.3867 16.7305 29.668 16.7305C29.0195 16.7305 28.4766 16.9102 28.0391 17.2695C27.6016 17.6211 27.3828 18.082 27.3828 18.6523H23.9961C23.9961 17.7617 24.2344 16.9648 24.7109 16.2617C25.1953 15.5508 25.8672 14.9961 26.7266 14.5977C27.5938 14.1992 28.5469 14 29.5859 14C31.3906 14 32.8047 14.4336 33.8281 15.3008C34.8516 16.1602 35.3633 17.3477 35.3633 18.8633C35.3633 19.6445 35.125 20.3633 34.6484 21.0195C34.1719 21.6758 33.5469 22.1797 32.7734 22.5312C33.7344 22.875 34.4492 23.3906 34.918 24.0781C35.3945 24.7656 35.6328 25.5781 35.6328 26.5156C35.6328 28.0312 35.0781 29.2461 33.9688 30.1602C32.8672 31.0742 31.4062 31.5312 29.5859 31.5312C27.8828 31.5312 26.4883 31.082 25.4023 30.1836C24.3242 29.2852 23.7852 28.0977 23.7852 26.6211H27.1719C27.1719 27.2617 27.4102 27.7852 27.8867 28.1914C28.3711 28.5977 28.9648 28.8008 29.668 28.8008C30.4727 28.8008 31.1016 28.5898 31.5547 28.168C32.0156 27.7383 32.2461 27.1719 32.2461 26.4688C32.2461 24.7656 31.3086 23.9141 29.4336 23.9141H27.6406V21.2656Z" fill="white"/>
</svg>
