<svg width="517" height="248" viewBox="0 0 517 248" fill="none" xmlns="http://www.w3.org/2000/svg">
<path d="M48.2663 4.96875L44.137 2.89946L44.4096 7.51021L48.2663 4.96875ZM205.983 247.607L208.216 243.564L203.598 243.652L205.983 247.607ZM44.6465 4.78207C42.2281 4.93744 39.9213 5.11169 37.7233 5.30473L37.7933 6.10167C39.9845 5.90921 42.2851 5.73543 44.6978 5.58043L44.6465 4.78207ZM17.3629 8.28194C12.1424 9.50881 8.22176 10.9918 5.4826 12.7393C2.73884 14.4897 1.15066 16.5261 0.667161 18.858L1.4505 19.0204C1.87672 16.9648 3.28629 15.0894 5.91287 13.4137C8.54406 11.7351 12.3664 10.278 17.546 9.06073L17.3629 8.28194ZM10.6767 36.4013C14.8827 40.4059 20.2516 44.7623 26.4967 49.4585L26.9775 48.8191C20.7428 44.1307 15.4018 39.7956 11.2283 35.8219L10.6767 36.4013ZM43.2143 61.5112C48.5163 65.2262 54.1484 69.1107 60.0092 73.1601L60.464 72.5019C54.6021 68.4519 48.9727 64.5691 43.6733 60.856L43.2143 61.5112ZM76.9111 84.9084C82.3844 88.7511 87.9642 92.7199 93.5826 96.8126L94.0537 96.166C88.4305 92.0698 82.8467 88.0982 77.3708 84.2537L76.9111 84.9084ZM110.028 109.108C115.423 113.259 120.791 117.522 126.074 121.894L126.584 121.278C121.293 116.899 115.917 112.63 110.516 108.474L110.028 109.108ZM141.585 135.317C146.677 139.943 151.622 144.678 156.356 149.518L156.928 148.959C152.181 144.106 147.226 139.36 142.123 134.725L141.585 135.317ZM170.146 164.691C174.607 170.01 178.766 175.444 182.55 180.99L183.211 180.539C179.41 174.969 175.235 169.514 170.759 164.177L170.146 164.691ZM193.011 198.55C196.15 204.726 198.776 211.026 200.802 217.447L201.565 217.206C199.524 210.739 196.881 204.399 193.725 198.188L193.011 198.55ZM205.031 237.389C205.268 239.588 205.431 241.799 205.515 244.024L206.315 243.993C206.229 241.75 206.066 239.52 205.827 237.303L205.031 237.389ZM48.2663 4.96875L39.9857 0.874244L40.5801 10.0927L48.2663 4.96875ZM205.983 247.607L210.296 239.438L201.065 239.788L205.983 247.607ZM41.0206 4.6343C39.8833 4.72037 38.7726 4.81103 37.6883 4.90627L37.8283 6.50013C38.9059 6.40548 40.0102 6.31535 41.1414 6.22974L41.0206 4.6343ZM17.2714 7.89255C12.0304 9.12423 8.06061 10.6202 5.26747 12.4021C2.46511 14.1898 0.787632 16.3068 0.275492 18.7768L1.84217 19.1016C2.23976 17.1841 3.56001 15.3892 6.128 13.751C8.70521 12.1068 12.4784 10.6625 17.6375 9.45012L17.2714 7.89255ZM10.4009 36.691C14.6231 40.7111 20.006 45.0781 26.2563 49.7782L27.2179 48.4994C20.9884 43.8149 15.6614 39.4904 11.5042 35.5322L10.4009 36.691ZM42.9847 61.8388C48.2881 65.5547 53.9216 69.4402 59.7818 73.4892L60.6913 72.1728C54.829 68.1224 49.2009 64.2406 43.9029 60.5284L42.9847 61.8388ZM76.6813 85.2358C82.1532 89.0775 87.7311 93.0449 93.3471 97.136L94.2892 95.8427C88.6637 91.7448 83.0779 87.7718 77.6007 83.9263L76.6813 85.2358ZM109.784 109.425C115.175 113.574 120.54 117.834 125.819 122.202L126.839 120.969C121.544 116.587 116.164 112.316 110.76 108.157L109.784 109.425ZM141.316 135.614C146.403 140.235 151.342 144.964 156.07 149.798L157.214 148.679C152.461 143.82 147.5 139.069 142.391 134.429L141.316 135.614ZM169.84 164.948C174.293 170.258 178.443 175.682 182.219 181.215L183.541 180.313C179.732 174.731 175.549 169.266 171.065 163.92L169.84 164.948ZM192.655 198.731C195.784 204.89 198.401 211.169 200.421 217.567L201.946 217.086C199.898 210.596 197.246 204.235 194.081 198.007L192.655 198.731ZM204.633 237.432C204.743 238.443 204.836 239.456 204.913 240.473L206.508 240.352C206.43 239.319 206.335 238.288 206.224 237.26L204.633 237.432Z" fill="#FFD600"/>
<path d="M457 7.5L461.105 5.38237L460.886 9.996L457 7.5ZM275.282 247.607L273.064 243.556L277.682 243.661L275.282 247.607ZM460.617 7.2708C463.017 7.39225 465.33 7.52548 467.559 7.67044L467.507 8.46875C465.283 8.32406 462.973 8.19105 460.576 8.06978L460.617 7.2708ZM487.498 9.56553C496.114 10.7254 502.647 12.1968 507.324 13.981L507.039 14.7285C502.445 12.976 495.982 11.5148 487.392 10.3584L487.498 9.56553ZM514.376 29.6115C511.543 33.6792 506.303 38.2341 499.28 43.2593L498.815 42.6087C505.827 37.5908 510.97 33.1021 513.72 29.1543L514.376 29.6115ZM482.317 54.3769C476.938 57.6899 471.079 61.1673 464.855 64.8058L464.451 64.1152C470.673 60.478 476.526 57.0041 481.897 53.6958L482.317 54.3769ZM447.301 74.9845C441.596 78.2817 435.705 81.6911 429.691 85.2112L429.287 84.5209C435.302 80.9995 441.196 77.5891 446.9 74.2919L447.301 74.9845ZM412.263 95.5547C406.537 99.0081 400.762 102.555 394.991 106.194L394.564 105.517C400.34 101.875 406.12 98.3253 411.849 94.8697L412.263 95.5547ZM377.962 117.238C372.333 121.002 366.758 124.854 361.288 128.793L360.821 128.144C366.299 124.199 371.882 120.341 377.517 116.573L377.962 117.238ZM345.101 140.983C339.723 145.232 334.511 149.572 329.522 154.001L328.991 153.403C333.993 148.962 339.216 144.612 344.605 140.355L345.101 140.983ZM314.849 168.001C310.047 172.956 305.569 178.013 301.484 183.169L300.857 182.672C304.96 177.493 309.456 172.416 314.274 167.444L314.849 168.001ZM289.955 199.803C286.429 205.747 283.475 211.811 281.186 217.99L280.436 217.712C282.744 211.482 285.719 205.376 289.267 199.394L289.955 199.803ZM276.324 237.519C276.05 239.675 275.862 241.844 275.763 244.026L274.964 243.99C275.064 241.786 275.254 239.596 275.53 237.418L276.324 237.519ZM457 7.5L465.224 3.29234L464.756 12.5181L457 7.5ZM275.282 247.607L271.029 239.407L280.257 239.824L275.282 247.607ZM464.237 7.06603C465.374 7.13161 466.49 7.20003 467.585 7.27128L467.481 8.86791C466.39 8.79692 465.278 8.72874 464.145 8.66338L464.237 7.06603ZM487.552 9.16911C496.181 10.3307 502.748 11.8071 507.467 13.6073L506.897 15.1022C502.344 13.3656 495.916 11.9095 487.338 10.7548L487.552 9.16911ZM514.704 29.8401C511.83 33.9677 506.54 38.5558 499.513 43.5846L498.582 42.2834C505.589 37.2691 510.684 32.8136 513.391 28.9257L514.704 29.8401ZM482.526 54.7175C477.144 58.0328 471.283 61.5119 465.057 65.1512L464.249 63.7698C470.47 60.1334 476.32 56.6612 481.687 53.3552L482.526 54.7175ZM447.501 75.3308C441.796 78.628 435.906 82.0369 429.894 85.5564L429.085 84.1757C435.101 80.6536 440.996 77.2428 446.7 73.9456L447.501 75.3308ZM412.469 95.8972C406.745 99.3495 400.973 102.895 395.204 106.532L394.35 105.179C400.13 101.535 405.912 97.9839 411.643 94.5271L412.469 95.8972ZM378.184 117.571C372.559 121.332 366.988 125.182 361.522 129.118L360.587 127.819C366.069 123.871 371.656 120.011 377.295 116.24L378.184 117.571ZM345.349 141.296C339.976 145.541 334.77 149.876 329.788 154.3L328.725 153.104C333.733 148.657 338.963 144.302 344.357 140.041L345.349 141.296ZM315.136 168.279C310.342 173.226 305.873 178.273 301.797 183.418L300.543 182.424C304.656 177.233 309.161 172.146 313.987 167.166L315.136 168.279ZM290.299 200.007C286.784 205.933 283.841 211.975 281.562 218.129L280.061 217.573C282.378 211.318 285.364 205.19 288.923 199.19L290.299 200.007ZM276.721 237.57C276.597 238.539 276.492 239.512 276.404 240.487L274.81 240.343C274.9 239.349 275.008 238.357 275.133 237.368L276.721 237.57Z" fill="#FFD600"/>
</svg>
