<?xml version="1.0" standalone="no"?>
<!DOCTYPE svg PUBLIC "-//W3C//DTD SVG 20010904//EN"
 "http://www.w3.org/TR/2001/REC-SVG-20010904/DTD/svg10.dtd">
<svg version="1.0" xmlns="http://www.w3.org/2000/svg"
 width="1344.000000pt" height="1344.000000pt" viewBox="0 0 1344.000000 1344.000000"
 preserveAspectRatio="xMidYMid meet">
<metadata>
Created by potrace 1.11, written by Peter Selinger 2001-2013
</metadata>
<g transform="translate(0.000000,1344.000000) scale(0.100000,-0.100000)"
fill="#000000" stroke="none">
<path d="M6668 11195 c-1 -1 -106 -6 -233 -9 -204 -5 -296 -10 -440 -21 -22
-2 -40 -4 -40 -5 0 -1 -25 -3 -55 -5 -139 -10 -212 -18 -280 -30 -14 -3 -50
-7 -80 -11 -67 -8 -73 -9 -130 -18 -25 -4 -56 -9 -70 -12 -48 -7 -295 -54
-310 -59 -8 -2 -30 -7 -48 -10 -18 -3 -61 -12 -95 -21 -56 -13 -77 -18 -127
-29 -8 -2 -15 -4 -15 -5 0 -1 -9 -3 -19 -5 -11 -2 -30 -6 -43 -10 -13 -3 -25
-5 -28 -6 -3 0 -23 -6 -45 -14 -22 -8 -43 -14 -45 -14 -3 0 -29 -8 -58 -16
-28 -9 -63 -19 -77 -21 -26 -5 -366 -119 -410 -137 -14 -5 -29 -11 -35 -13 -5
-1 -23 -8 -40 -15 -16 -7 -32 -13 -35 -14 -7 -2 -61 -24 -80 -32 -8 -3 -17 -7
-20 -8 -3 -1 -22 -9 -44 -18 -21 -9 -40 -17 -41 -17 -4 0 -138 -62 -245 -113
-47 -22 -87 -41 -90 -42 -3 0 -16 -7 -30 -15 -14 -7 -61 -32 -105 -55 -44 -23
-109 -58 -143 -78 -35 -21 -68 -37 -73 -37 -5 0 -9 -4 -9 -10 0 -5 -4 -10 -9
-10 -10 0 -177 -102 -248 -151 -23 -16 -44 -29 -48 -29 -3 0 -15 -8 -26 -19
-11 -10 -45 -36 -77 -57 -61 -42 -276 -207 -304 -233 -9 -9 -29 -26 -45 -38
-108 -82 -368 -332 -494 -474 -35 -40 -71 -80 -79 -88 -8 -9 -37 -45 -65 -81
-27 -36 -52 -67 -55 -70 -5 -5 -84 -112 -108 -147 -48 -70 -132 -205 -132
-212 0 -5 -6 -16 -14 -24 -8 -7 -49 -85 -91 -173 -42 -87 -81 -167 -86 -176
-5 -10 -9 -25 -9 -33 0 -8 -5 -15 -12 -15 -6 0 -9 -3 -5 -6 3 -3 -3 -26 -13
-50 -11 -24 -20 -48 -21 -52 -2 -11 -6 -22 -28 -87 -19 -57 -59 -198 -66 -233
-2 -9 -8 -37 -14 -62 -5 -25 -12 -58 -15 -75 -3 -16 -8 -39 -10 -51 -2 -12 -8
-45 -11 -75 -4 -30 -9 -65 -11 -79 -3 -23 -12 -109 -19 -190 -3 -37 -7 -155
-6 -180 1 -13 653 -15 5813 -14 3197 1 5816 2 5820 3 4 1 6 7 3 14 -2 6 -7 57
-10 112 -3 55 -8 114 -10 130 -2 17 -6 48 -9 70 -20 156 -29 210 -62 354 -8
36 -17 77 -20 91 -2 14 -7 32 -11 40 -3 8 -8 24 -10 35 -5 28 -58 189 -83 255
-12 30 -28 73 -36 94 -19 53 -156 329 -194 391 -16 28 -37 65 -47 83 -9 17
-20 32 -25 32 -4 0 -8 5 -8 11 0 6 -11 25 -25 43 -14 18 -25 38 -25 44 0 7 -4
12 -8 12 -5 0 -24 24 -42 53 -19 28 -37 54 -40 57 -4 3 -45 52 -91 110 -107
133 -380 408 -510 514 -13 11 -40 33 -60 50 -50 43 -73 61 -81 64 -4 1 -22 16
-40 33 -18 17 -53 45 -78 62 -25 17 -47 33 -50 37 -3 3 -41 31 -85 61 -44 29
-86 60 -93 67 -8 7 -28 20 -45 29 -18 9 -34 19 -37 23 -3 4 -27 21 -55 37 -27
17 -87 53 -133 82 -46 28 -85 51 -88 51 -2 0 -23 12 -47 27 -87 56 -559 293
-582 293 -2 0 -32 13 -67 29 -78 35 -186 80 -298 121 -47 18 -94 36 -105 40
-11 5 -29 11 -40 13 -11 3 -60 20 -110 37 -49 18 -103 36 -120 40 -16 5 -61
18 -100 30 -38 11 -77 23 -85 25 -8 2 -42 11 -75 20 -142 39 -212 58 -245 65
-19 5 -46 11 -60 14 -14 4 -38 9 -54 12 -16 2 -32 7 -36 9 -4 2 -26 7 -50 10
-23 3 -46 7 -50 10 -5 3 -21 7 -37 9 -26 4 -96 16 -288 51 -84 15 -136 23
-195 29 -19 2 -55 7 -80 11 -96 13 -117 16 -170 21 -30 2 -77 7 -105 9 -27 3
-81 8 -120 11 -38 2 -95 7 -125 9 -30 2 -154 7 -275 10 -121 3 -225 8 -232 10
-6 2 -13 2 -15 0z m-2348 -1195 c67 -66 117 -120 111 -120 -6 0 -11 -3 -11 -7
0 -5 -131 -141 -291 -303 -263 -267 -291 -293 -302 -276 -7 10 -31 39 -54 63
-24 25 -43 46 -43 48 0 2 -15 19 -32 37 -18 19 -45 48 -59 65 l-27 30 25 29
c46 55 180 189 338 339 86 83 171 164 188 182 18 17 33 32 33 32 1 1 56 -53
124 -119z m-1130 -1090 c0 -6 11 -23 24 -38 80 -90 175 -209 176 -218 0 -6
-21 -28 -47 -50 -25 -21 -52 -45 -59 -51 -7 -7 -16 -13 -20 -13 -3 0 -14 -8
-23 -17 -9 -10 -52 -47 -96 -83 -44 -35 -82 -67 -85 -70 -3 -3 -33 -27 -67
-53 -34 -26 -68 -53 -75 -60 -7 -7 -29 -24 -48 -37 -19 -13 -37 -27 -40 -30
-14 -15 -89 -70 -97 -70 -16 0 -67 54 -168 181 l-35 44 113 110 c124 120 182
173 272 250 32 28 63 55 69 60 6 6 43 37 81 70 39 32 76 65 83 72 16 15 42 17
42 3z m1733 -112 c64 -67 117 -125 117 -128 0 -4 -39 -42 -87 -86 -47 -43 -99
-91 -115 -106 -15 -15 -28 -26 -28 -24 0 1 -24 -20 -53 -48 -29 -28 -86 -80
-127 -116 -40 -36 -83 -75 -96 -87 -13 -13 -26 -23 -29 -23 -3 0 -21 -16 -41
-35 -19 -19 -40 -35 -46 -35 -7 0 -60 50 -119 110 l-107 110 242 239 c313 309
356 351 364 351 4 0 60 -55 125 -122z"/>
<path d="M2077 6524 c-2 -2 -69 -7 -148 -9 -79 -3 -182 -8 -229 -10 -47 -2
-150 -7 -230 -11 -80 -4 -184 -8 -232 -8 -49 -1 -88 -3 -88 -6 0 -3 -62 -5
-138 -5 -80 0 -140 -4 -144 -10 -5 -6 -8 -5 -8 3 0 7 -4 11 -8 8 -5 -3 -73 -6
-153 -7 -126 -2 -151 -5 -199 -26 -96 -41 -180 -108 -256 -203 -62 -77 -80
-104 -112 -170 -9 -19 -21 -38 -27 -42 -5 -4 -6 -8 -1 -8 5 0 4 -6 -2 -12 -5
-7 -22 -46 -36 -87 -24 -66 -34 -103 -54 -196 -9 -39 -9 -404 0 -472 3 -28 11
-59 16 -70 5 -10 8 -28 7 -41 -1 -13 2 -25 7 -28 4 -3 8 -13 8 -23 0 -10 10
-47 21 -82 12 -35 22 -68 24 -74 10 -44 86 -213 106 -236 11 -12 19 -25 19
-28 0 -21 155 -161 179 -161 6 0 11 -4 11 -8 0 -9 70 -37 83 -34 4 1 7 -2 7
-7 0 -5 17 -12 38 -16 20 -5 42 -10 47 -11 25 -8 111 -24 168 -31 78 -10
11918 -11 11972 -1 149 27 190 39 290 88 97 48 225 149 225 179 0 6 5 11 10
11 6 0 13 8 17 18 4 9 19 35 34 58 29 43 102 240 96 258 -3 6 -1 18 4 27 38
75 47 531 14 759 -4 25 -9 52 -12 60 -4 8 -8 26 -10 40 -11 68 -59 183 -108
261 -103 161 -255 255 -490 304 -25 6 -103 14 -180 21 -33 3 -404 6 -825 8
-421 2 -848 7 -950 11 -102 5 -243 8 -315 8 -133 0 -415 -12 -425 -18 -3 -2
-25 -4 -50 -6 -25 -1 -53 -6 -62 -11 -12 -6 -18 -5 -18 2 0 6 -5 8 -11 4 -6
-4 -23 -8 -38 -9 -25 -3 -146 -22 -186 -30 -23 -4 -159 -33 -192 -40 -13 -3
-33 -7 -45 -10 -61 -12 -323 -89 -364 -107 -16 -6 -33 -12 -39 -13 -5 0 -19
-6 -30 -12 -11 -6 -22 -11 -25 -11 -11 -1 -114 -42 -215 -85 -70 -30 -418
-206 -425 -215 -3 -4 -25 -18 -50 -31 -25 -14 -88 -52 -140 -86 -52 -34 -106
-68 -120 -75 -14 -7 -27 -16 -30 -19 -7 -9 -161 -105 -182 -113 -10 -4 -18
-12 -18 -17 0 -5 -9 -13 -20 -16 -17 -6 -82 -46 -145 -91 -11 -8 -42 -28 -70
-46 -27 -18 -52 -35 -55 -38 -3 -3 -34 -25 -70 -49 -88 -60 -293 -211 -305
-225 -5 -7 -26 -23 -45 -36 -19 -13 -44 -33 -55 -44 -34 -34 -103 -86 -114
-86 -6 0 -11 -4 -11 -10 0 -5 -7 -10 -15 -10 -8 0 -15 -3 -15 -7 0 -10 -39
-29 -106 -53 -61 -21 -167 -23 -206 -3 -16 7 -28 11 -28 8 0 -12 -162 79 -192
108 -10 9 -22 17 -26 17 -5 0 -17 8 -28 18 -10 10 -48 38 -84 62 -36 25 -67
47 -70 50 -8 9 -288 203 -410 284 -41 28 -76 54 -78 58 -2 4 -7 8 -12 8 -5 0
-56 32 -114 70 -58 39 -110 70 -115 70 -5 0 -11 4 -13 8 -4 10 -366 232 -378
232 -5 0 -10 3 -12 8 -1 4 -19 16 -38 26 -19 11 -75 42 -125 69 -207 115 -489
247 -555 259 -8 2 -18 7 -21 11 -3 4 -18 10 -34 13 -15 3 -38 10 -49 16 -12 6
-23 11 -26 11 -6 -1 -2 -2 -105 30 -70 22 -155 45 -235 63 -54 12 -116 25
-140 30 -14 2 -45 9 -70 14 -25 6 -61 12 -80 14 -19 2 -46 7 -60 10 -14 3 -47
8 -75 11 -27 3 -66 8 -85 10 -75 9 -191 20 -320 32 -75 6 -967 13 -973 7z"/>
<path d="M1100 3790 c-7 -4 2 -71 27 -195 3 -16 6 -38 7 -47 0 -10 3 -18 6
-18 4 0 7 -6 8 -12 1 -25 13 -74 28 -121 9 -26 17 -53 18 -60 2 -7 6 -19 9
-27 3 -8 15 -41 27 -74 129 -359 337 -619 635 -793 21 -12 107 -55 115 -58 3
-1 21 -8 40 -16 79 -35 259 -85 340 -96 19 -2 41 -6 48 -9 7 -2 50 -7 95 -11
108 -10 8309 -10 8412 0 76 7 97 10 163 22 15 3 43 8 62 11 19 3 42 7 50 10 8
3 26 8 40 10 49 10 228 74 297 108 133 65 253 152 356 258 31 33 57 62 57 64
0 3 13 19 30 37 16 18 30 38 30 45 0 6 4 12 9 12 14 0 112 173 159 281 23 53
56 139 72 190 17 52 34 101 37 109 3 8 7 22 8 30 1 8 8 38 15 65 6 28 13 57
15 65 2 8 8 37 14 63 6 27 9 52 6 57 -3 4 -1 10 4 12 8 3 15 52 12 83 -1 10
-11235 15 -11251 5z"/>
</g>
</svg>
